<?xml version="1.0" encoding="UTF-8"?>
<svg version="1.1" viewBox="0 0 8.4667 8.4667" xmlns="http://www.w3.org/2000/svg">
	<g transform="translate(212.18 -102.66)">
		<g transform="matrix(.93723 0 0 1.0065 -211.95 -80.865)">
			<g transform="matrix(.062545 0 0 .062508 5.4033 176.21)">
				<path d="m-60.396 97.968h96.704c2.654 0 4.7907 2.1366 4.7907 4.7907v124.99c0 2.654-2.1366 4.7907-4.7907 4.7907h-96.704c-2.654 0-4.7907-2.1366-4.7907-4.7907v-124.99c0-2.654 2.1366-4.7907 4.7907-4.7907z" fill="#2e71a4"/>
				<path d="m-12.246 100.14c-0.50916 0-0.91711 0.38541-0.91711 0.87064v128.48c0 0.48523 0.40797 0.87064 0.91711 0.87064h46.261c0.50916 0 0.91711-0.38542 0.91711-0.87064v-55.384h17.797c0.72357 0 1.3054-0.55069 1.3054-1.2402v-15.228c0-0.68956-0.58187-1.2485-1.3054-1.2485h-17.797v-55.384c0-0.48523-0.40797-0.87064-0.91711-0.87064z" fill="#e5d9bf"/>
				<path d="m-14.865 100.14c-0.50916 0-0.91711 0.38541-0.91711 0.87064v128.48c0 0.48523 0.40797 0.87064 0.91711 0.87064h46.261c0.50916 0 0.92538-0.38542 0.92538-0.87064v-77.684h17.789c0.72357 0 1.3054-0.55891 1.3054-1.2485v-15.228c0-0.68956-0.58187-1.2402-1.3054-1.2402h-17.789v-33.084c0-0.48523-0.41622-0.87064-0.92538-0.87064z" fill="#cdb687"/>
				<path d="m-18.037 100.32c-0.50916 0-0.92538 0.39363-0.92538 0.87886v128.48c0 0.48522 0.41622 0.87885 0.92538 0.87885h46.261c0.50916 0 0.91711-0.39362 0.91711-0.87885v-99.236h17.789c0.72357 0 1.3054-0.5589 1.3054-1.2485v-15.228c0-0.68956-0.58187-1.2402-1.3054-1.2402h-17.789v-11.524c0-0.48523-0.40797-0.87886-0.91711-0.87886z" fill="#bb9e5d"/>
				<path d="m-75.338 97.968h96.642c2.654 0 4.7907 2.1366 4.7907 4.7907v124.99c0 2.654-2.1366 4.7907-4.7907 4.7907h-96.642c-2.654 0-4.7907-2.1366-4.7907-4.7907v-124.99c0-2.654 2.1366-4.7907 4.7907-4.7907z" fill="#6da8d6"/>
				<g transform="matrix(1.1144 0 0 1.0421 10.378 -16.622)" fill="#2e71a4">
					<path transform="scale(1,-1)" d="m-85.597-227.28h9.3059c2.6798 0 4.8372 2.1574 4.8372 4.8372s-2.1574 4.8372-4.8372 4.8372h-9.3059c-2.6798 0-4.8372-2.1574-4.8372-4.8372s2.1574-4.8372 4.8372-4.8372z"/>
					<path transform="scale(1,-1)" d="m-85.597-195.53h9.3059c2.6798 0 4.8372 2.1574 4.8372 4.8372s-2.1574 4.8372-4.8372 4.8372h-9.3059c-2.6798 0-4.8372-2.1574-4.8372-4.8372s2.1574-4.8372 4.8372-4.8372z"/>
					<path transform="scale(1,-1)" d="m-85.597-163.78h9.3059c2.6798 0 4.8372 2.1574 4.8372 4.8372s-2.1574 4.8372-4.8372 4.8372h-9.3059c-2.6798 0-4.8372-2.1574-4.8372-4.8372s2.1574-4.8372 4.8372-4.8372z"/>
					<path transform="scale(1,-1)" d="m-85.597-132.03h9.3059c2.6798 0 4.8372 2.1574 4.8372 4.8372s-2.1574 4.8372-4.8372 4.8372h-9.3059c-2.6798 0-4.8372-2.1574-4.8372-4.8372s2.1574-4.8372 4.8372-4.8372z"/>
				</g>
			</g>
			<path d="m3.6784 188.91q-0.42203 0-0.78075-0.17426-0.35872-0.17427-0.5838-0.49597l0.30949-0.33509q0.40796 0.57637 1.0621 0.57637 0.91439 0 0.91439-1.0321v-2.8417h-1.8006v-0.42894h2.3141v3.2505q0 0.73724-0.36576 1.1126-0.35872 0.36863-1.0691 0.36863z" fill="#222"/>
		</g>
	</g>
</svg>
