<?xml version="1.0" encoding="UTF-8"?>
<svg fill="#dddddd" version="1.1" viewBox="0 0 304.45 408.48" xmlns="http://www.w3.org/2000/svg">
 <g transform="translate(-52.016)">
  <path d="m87.748 388.78c0.461 11.01 9.521 19.699 20.539 19.699h191.91c11.018 0 20.078-8.689 20.539-19.699l13.705-289.32h-260.4zm159.91-217.46c0-4.61 3.738-8.349 8.35-8.349h13.355c4.609 0 8.35 3.738 8.35 8.349v165.29c0 4.611-3.738 8.349-8.35 8.349h-13.355c-4.61 0-8.35-3.736-8.35-8.349zm-58.439 0c0-4.61 3.738-8.349 8.349-8.349h13.355c4.609 0 8.349 3.738 8.349 8.349v165.29c0 4.611-3.737 8.349-8.349 8.349h-13.355c-4.61 0-8.349-3.736-8.349-8.349zm-58.441 0c0-4.61 3.738-8.349 8.349-8.349h13.356c4.61 0 8.349 3.738 8.349 8.349v165.29c0 4.611-3.738 8.349-8.349 8.349h-13.356c-4.61 0-8.349-3.736-8.349-8.349z"/>
  <path d="m343.57 21.043h-88.535v-16.738c0-2.377-1.927-4.305-4.305-4.305h-92.971c-2.377 0-4.304 1.928-4.304 4.305v16.737h-88.536c-7.125 0-12.9 5.776-12.9 12.901v40.527h304.45v-40.526c0-7.125-5.775-12.901-12.9-12.901z"/>
 </g>
</svg>
