<?xml version="1.0" encoding="iso-8859-1"?>
<!-- Generator: Adobe Illustrator 19.0.0, SVG Export Plug-In . SVG Version: 6.00 Build 0)  -->
<svg xmlns="http://www.w3.org/2000/svg" xmlns:xlink="http://www.w3.org/1999/xlink" viewBox="0 0 512 512" style="fill: #000">
		<path d="M469.333,21.333H42.667C19.146,21.333,0,40.469,0,64v384c0,23.531,19.146,42.667,42.667,42.667h426.667
			C492.854,490.667,512,471.531,512,448V64C512,40.469,492.854,21.333,469.333,21.333z M245.333,64
			C268.854,64,288,83.135,288,106.667s-19.146,42.667-42.667,42.667c-23.521,0-42.667-19.135-42.667-42.667S221.813,64,245.333,64z
			 M318.208,272.583l-21.333,32c-3,4.479-8.896,5.99-13.646,3.625l-42.667-21.333c-2.063-1.031-3.729-2.708-4.771-4.771
			l-10.708-21.427l-10.604,26.5l40.125,70.198c0.917,1.615,1.396,3.438,1.396,5.292v74.667c0,5.896-4.771,10.667-10.667,10.667
			h-42.667c-5.896,0-10.667-4.771-10.667-10.667v-50.5l-29.417-51.49l-13.792,41.365c-0.521,1.573-1.417,3-2.583,4.167
			l-53.333,53.323c-4.167,4.167-10.917,4.167-15.083,0l-32-31.99c-2-2-3.125-4.708-3.125-7.542s1.125-5.542,3.125-7.542
			l40.979-40.969L107.521,288H74.667c-3.438,0-6.646-1.646-8.646-4.427c-2.021-2.781-2.563-6.365-1.479-9.615l32-96
			c0.896-2.677,2.833-4.896,5.354-6.167l50.729-25.365c11.229-5.625,24.292-6.031,35.896-1.052l50.25,21.542
			c9.229,3.958,16.813,11.094,21.354,20.104l25.479,51.01l29.646,19.76C320.146,261.062,321.479,267.677,318.208,272.583z
			 M465.333,275L412,317.667c-1.937,1.542-4.291,2.333-6.666,2.333c-1.563,0-3.146-0.344-4.625-1.052
			c-3.688-1.781-6.042-5.51-6.042-9.615v-10.667H352c-5.896,0-10.667-4.771-10.667-10.667v-42.667
			c0-5.896,4.771-10.667,10.667-10.667h42.667V224c0-4.104,2.354-7.833,6.042-9.615c3.708-1.802,8.083-1.292,11.291,1.281
			l53.333,42.667c2.521,2.031,4,5.094,4,8.333C469.333,269.906,467.854,272.969,465.333,275z"/>
</svg>
